<?xml version="1.0" encoding="UTF-8" standalone="no"?>
<svg
   xmlns:dc="http://purl.org/dc/elements/1.1/"
   xmlns:cc="http://creativecommons.org/ns#"
   xmlns:rdf="http://www.w3.org/1999/02/22-rdf-syntax-ns#"
   xmlns:svg="http://www.w3.org/2000/svg"
   xmlns="http://www.w3.org/2000/svg"
   xmlns:sodipodi="http://sodipodi.sourceforge.net/DTD/sodipodi-0.dtd"
   xmlns:inkscape="http://www.inkscape.org/namespaces/inkscape"
   width="64"
   height="64"
   viewBox="0 0 64 64"
   id="svg3374"
   version="1.1"
   inkscape:version="0.91 r13725"
   sodipodi:docname="griff_head.svg">
  <sodipodi:namedview
     pagecolor="#ffffff"
     bordercolor="#666666"
     borderopacity="1"
     objecttolerance="10"
     gridtolerance="10"
     guidetolerance="10"
     inkscape:pageopacity="0"
     inkscape:pageshadow="2"
     inkscape:window-width="640"
     inkscape:window-height="480"
     id="namedview9"
     showgrid="false"
     inkscape:zoom="3.6875"
     inkscape:cx="32"
     inkscape:cy="32"
     inkscape:window-x="2462"
     inkscape:window-y="577"
     inkscape:window-maximized="0"
     inkscape:current-layer="svg3374" />
  <defs
     id="defs3376" />
  <metadata
     id="metadata3379">
    <rdf:RDF>
      <cc:Work
         rdf:about="">
        <dc:format>image/svg+xml</dc:format>
        <dc:type
           rdf:resource="http://purl.org/dc/dcmitype/StillImage" />
        <dc:title />
      </cc:Work>
    </rdf:RDF>
  </metadata>
  <g
     transform="translate(0,-988.3622)"
     id="layer1"
     style="fill:#ffffff">
    <g
       id="g3448"
       style="fill:#ffffff">
      <path
         id="path3430"
         transform="translate(0,988.3622)"
         d="M 32.818359 1.4453125 C 32.688809 1.4485844 32.604623 1.4592156 32.580078 1.4785156 C 32.481858 1.5564256 32.457891 2.0978906 32.525391 2.6816406 C 32.606833 3.3859706 33.37393 4.5191213 34.806641 6.0507812 C 35.994158 7.3202912 37.348708 9.1950968 37.816406 10.216797 C 38.603237 11.935497 38.779326 12.093053 40.175781 12.314453 C 41.005838 12.446253 42.568402 13.018036 43.648438 13.585938 C 44.728473 14.153636 45.733577 14.622766 45.880859 14.634766 C 46.304234 14.661366 46.203425 14.111337 45.378906 11.898438 C 44.428064 9.346337 43.316672 7.55184 41.396484 5.46875 C 39.081292 2.95706 37.311646 1.9062656 34.888672 1.6035156 C 34.010441 1.4943456 33.207011 1.4354969 32.818359 1.4453125 z M 22.138672 2.2285156 C 21.843527 2.2388505 21.57602 2.2650175 21.34375 2.3085938 L 20.033203 2.5546875 L 21.486328 4.1308594 C 23.296512 6.0946594 23.391998 7.32813 21.869141 9.0625 C 21.280056 9.7336 20.798828 10.382506 20.798828 10.503906 C 20.798828 10.625506 21.292286 10.722656 21.896484 10.722656 C 22.634659 10.722656 23.33782 11.066278 24.039062 11.767578 C 24.833731 12.562378 25.082172 13.137334 25.076172 14.177734 C 25.060268 16.950734 22.800318 20.123678 20.517578 20.580078 C 19.886471 20.707278 19.371 20.669847 19.371094 20.498047 C 19.371192 20.326347 20.161487 19.505328 21.126953 18.673828 C 22.17597 17.770428 23.052411 16.647312 23.304688 15.882812 C 23.536876 15.179314 23.646658 14.523781 23.548828 14.425781 C 23.337855 14.214881 18.071547 16.359028 14.958984 17.923828 C 11.206999 19.809828 7.8572353 22.156837 5.5351562 24.523438 C 4.3078499 25.774338 3.3046875 26.955491 3.3046875 27.150391 C 3.3046875 27.344991 4.0716156 27.505859 5.0097656 27.505859 C 7.0455867 27.505859 8.3928017 28.302563 8.234375 29.414062 C 8.1519195 29.992763 7.2952536 30.583987 4.7753906 31.804688 C 2.8400817 32.742188 1.0701794 33.872422 0.58203125 34.482422 C 0.26235069 34.881875 0.14392131 35.112955 0 35.361328 L 0 35.814453 C 0.20756236 35.947546 1.185318 36.16612 2.6367188 36.351562 C 4.7271983 36.618263 5.7426426 36.926366 6.2636719 37.447266 C 6.945691 38.129266 6.9535716 38.2211 6.4023438 39.0625 C 6.0806959 39.5532 4.2047127 41.259869 2.234375 42.855469 C 1.281245 43.627338 0.81836743 44.260086 0 45.052734 L 0 64 L 31.982422 64 C 31.912102 63.719845 31.890359 63.508412 31.714844 63.048828 C 31.373062 62.153928 30.973115 61.421875 30.826172 61.421875 C 30.679231 61.421875 30.337299 61.83755 30.066406 62.34375 C 29.552618 63.30385 28.382154 64.126191 28.03125 63.775391 C 27.919357 63.663491 28.355181 62.536131 28.998047 61.269531 L 30.166016 58.966797 L 29.052734 55.322266 C 28.440432 53.317266 27.941406 51.258847 27.941406 50.748047 C 27.943178 49.515047 28.832361 48.116997 31.34375 45.404297 C 33.671978 42.889497 33.716527 43.072766 30.439453 41.509766 C 29.294143 40.963566 27.624912 40.511828 26.435547 40.423828 C 24.71619 40.297328 24.14718 40.420884 22.802734 41.208984 C 21.925681 41.722984 21.020712 42.142578 20.792969 42.142578 C 20.504624 42.142578 20.454907 41.6814 20.628906 40.625 C 21.018138 38.2609 21.689876 36.949066 23.503906 35.009766 C 24.426183 34.023966 25.098404 33.216797 24.998047 33.216797 C 24.897687 33.216797 24.176981 33.441497 23.396484 33.716797 C 22.615984 33.992897 21.774352 34.093153 21.525391 33.939453 C 20.696465 33.427253 21.779572 31.222369 23.716797 29.480469 C 24.70676 28.590469 25.660808 27.861328 25.835938 27.861328 C 26.011071 27.861328 26.154297 27.629403 26.154297 27.345703 C 26.154297 26.580903 27.654502 25.054375 28.474609 24.984375 C 29.682479 24.881675 30.439247 24.993037 30.435547 25.273438 C 30.43355 25.420537 29.776358 25.816244 28.976562 26.152344 C 27.44014 26.797744 27.376337 27.503906 28.853516 27.503906 C 30.309667 27.503906 29.829738 28.057109 27.957031 28.537109 C 26.839422 28.823709 25.593982 29.515422 24.566406 30.419922 C 23.672849 31.206422 22.941406 32.005666 22.941406 32.197266 C 22.941406 32.405466 23.555285 32.455312 24.458984 32.320312 C 25.293563 32.195614 26.428241 32.265864 26.980469 32.476562 L 27.984375 32.859375 L 26.328125 34.291016 C 24.498684 35.874616 23.260815 37.272184 22.636719 38.458984 C 21.959973 39.746084 22.114649 40.002284 23.314453 39.583984 C 25.062944 38.974384 28.581397 39.381344 30.933594 40.464844 C 32.566836 41.217344 34.075816 42.477053 37.716797 46.126953 C 40.292478 48.708953 43.228445 51.373275 44.242188 52.046875 C 46.610059 53.619775 48.419587 53.882881 50.28125 52.925781 C 51.051575 52.529681 52.149481 51.712628 52.720703 51.111328 C 53.892053 49.878328 53.803095 49.799291 50.974609 49.525391 C 49.503947 49.383191 49.010928 49.138994 48.119141 48.121094 C 47.526097 47.444294 46.418953 46.519606 45.658203 46.066406 C 44.852303 45.586106 43.698841 44.352728 42.896484 43.111328 C 42.139089 41.939528 41.603517 40.848194 41.705078 40.683594 C 42.006613 40.195794 44.423012 39.645875 46.148438 39.671875 C 47.032083 39.685475 48.298168 39.894466 48.962891 40.134766 C 49.847066 40.454666 50.279106 40.89745 50.570312 41.78125 C 50.851946 42.63635 51.255922 43.0659 51.951172 43.25 C 53.241313 43.5918 59.166178 48.398978 59.675781 49.517578 C 59.894103 49.996878 60.072266 50.863359 60.072266 51.443359 C 60.072266 52.023159 60.219047 52.496094 60.398438 52.496094 C 60.57779 52.496094 61.225289 51.815222 61.837891 50.982422 C 63.041428 49.345722 64 46.613659 64 44.818359 C 64 42.735459 62.909004 40.459106 60.552734 37.628906 C 59.267681 36.085506 57.910136 34.226647 57.537109 33.498047 C 57.103444 32.651147 56.859169 31.429222 56.855469 30.107422 C 56.850495 27.160222 55.619129 24.732747 52.644531 21.810547 C 48.711246 17.947047 42.12827 13.9375 39.71875 13.9375 C 39.328125 13.9375 39.007812 14.070575 39.007812 14.234375 C 39.007812 15.543775 39.950532 18.898641 40.486328 19.494141 C 40.851026 19.899541 41.150391 20.407247 41.150391 20.623047 C 41.150391 21.179047 39.305298 20.636781 38.990234 19.988281 C 38.852073 19.703781 38.481751 18.104847 38.167969 16.435547 C 37.083789 10.668547 33.853783 5.9171475 29.603516 3.8359375 C 27.614032 2.8618 24.204687 2.1561717 22.138672 2.2285156 z M 46.941406 24.849609 C 47.1899 24.872309 47.591421 25.193334 48.048828 25.802734 C 48.530581 26.444534 49.347081 27.81275 49.863281 28.84375 L 49.863281 28.845703 C 50.699028 30.514803 50.7336 30.716312 50.171875 30.695312 C 49.07002 30.653212 46.375401 29.807575 44.917969 29.046875 C 43.626018 28.372275 43.575302 28.291753 44.291016 28.064453 C 44.720047 27.926453 45.215939 27.907325 45.392578 28.015625 C 45.874898 28.313625 46.953245 26.460894 46.75 25.683594 C 46.597913 25.102094 46.692912 24.826909 46.941406 24.849609 z M 55.230469 37.572266 C 55.335688 37.558256 55.442732 37.558194 55.550781 37.574219 C 56.412682 37.702119 56.800862 38.572266 55.996094 38.572266 C 55.685175 38.572266 55.431641 38.814675 55.431641 39.109375 L 55.431641 39.117188 C 55.431641 39.807988 54.399228 39.802616 54.130859 39.103516 C 53.879152 38.447266 54.493934 37.670336 55.230469 37.572266 z "
         style="fill:#ffffff" />
      <path
         transform="translate(0,988.3622)"
         style="fill:#ffffff"
         d="M 32.818359 1.4453125 C 32.688809 1.4485844 32.604623 1.4592156 32.580078 1.4785156 C 32.481858 1.5564256 32.457891 2.0978906 32.525391 2.6816406 C 32.606833 3.3859706 33.37393 4.5191213 34.806641 6.0507812 C 35.994158 7.3202912 37.348708 9.1950968 37.816406 10.216797 C 38.603237 11.935497 38.779326 12.093053 40.175781 12.314453 C 41.005838 12.446253 42.568402 13.018036 43.648438 13.585938 C 44.728473 14.153636 45.733577 14.622766 45.880859 14.634766 C 46.304234 14.661366 46.203425 14.111337 45.378906 11.898438 C 44.428064 9.346337 43.316672 7.55184 41.396484 5.46875 C 39.081292 2.95706 37.311646 1.9062656 34.888672 1.6035156 C 34.010441 1.4943456 33.207011 1.4354969 32.818359 1.4453125 z M 22.138672 2.2285156 C 21.843527 2.2388505 21.57602 2.2650175 21.34375 2.3085938 L 20.033203 2.5546875 L 21.486328 4.1308594 C 23.296512 6.0946594 23.391998 7.32813 21.869141 9.0625 C 21.280056 9.7336 20.798828 10.382506 20.798828 10.503906 C 20.798828 10.625506 21.292286 10.722656 21.896484 10.722656 C 22.634659 10.722656 23.33782 11.066278 24.039062 11.767578 C 24.833731 12.562378 25.082172 13.137334 25.076172 14.177734 C 25.060268 16.950734 22.800318 20.123678 20.517578 20.580078 C 19.886471 20.707278 19.371 20.669847 19.371094 20.498047 C 19.371192 20.326347 20.161487 19.505328 21.126953 18.673828 C 22.17597 17.770428 23.052411 16.647312 23.304688 15.882812 C 23.536876 15.179314 23.646658 14.523781 23.548828 14.425781 C 23.337855 14.214881 18.071547 16.359028 14.958984 17.923828 C 11.206999 19.809828 7.8572353 22.156837 5.5351562 24.523438 C 4.3078499 25.774338 3.3046875 26.955491 3.3046875 27.150391 C 3.3046875 27.344991 4.0716156 27.505859 5.0097656 27.505859 C 7.0455867 27.505859 8.3928017 28.302563 8.234375 29.414062 C 8.1519195 29.992763 7.2952536 30.583987 4.7753906 31.804688 C 2.8400817 32.742188 1.0701794 33.872422 0.58203125 34.482422 C 0.26235069 34.881875 0.14392131 35.112955 0 35.361328 L 0 35.814453 C 0.20756236 35.947546 1.185318 36.16612 2.6367188 36.351562 C 4.7271983 36.618263 5.7426426 36.926366 6.2636719 37.447266 C 6.945691 38.129266 6.9535716 38.2211 6.4023438 39.0625 C 6.0806959 39.5532 4.2047127 41.259869 2.234375 42.855469 C 1.281245 43.627338 0.81836743 44.260086 0 45.052734 L 0 64 L 31.982422 64 C 31.912102 63.719845 31.890359 63.508412 31.714844 63.048828 C 31.373062 62.153928 30.973115 61.421875 30.826172 61.421875 C 30.679231 61.421875 30.337299 61.83755 30.066406 62.34375 C 29.552618 63.30385 28.382154 64.126191 28.03125 63.775391 C 27.919357 63.663491 28.355181 62.536131 28.998047 61.269531 L 30.166016 58.966797 L 29.052734 55.322266 C 28.440432 53.317266 27.941406 51.258847 27.941406 50.748047 C 27.943178 49.515047 28.832361 48.116997 31.34375 45.404297 C 33.671978 42.889497 33.716527 43.072766 30.439453 41.509766 C 29.294143 40.963566 27.624912 40.511828 26.435547 40.423828 C 24.71619 40.297328 24.14718 40.420884 22.802734 41.208984 C 21.925681 41.722984 21.020712 42.142578 20.792969 42.142578 C 20.504624 42.142578 20.454907 41.6814 20.628906 40.625 C 21.018138 38.2609 21.689876 36.949066 23.503906 35.009766 C 24.426183 34.023966 25.098404 33.216797 24.998047 33.216797 C 24.897687 33.216797 24.176981 33.441497 23.396484 33.716797 C 22.615984 33.992897 21.774352 34.093153 21.525391 33.939453 C 20.696465 33.427253 21.779572 31.222369 23.716797 29.480469 C 24.70676 28.590469 25.660808 27.861328 25.835938 27.861328 C 26.011071 27.861328 26.154297 27.629403 26.154297 27.345703 C 26.154297 26.580903 27.654502 25.054375 28.474609 24.984375 C 29.682479 24.881675 30.439247 24.993037 30.435547 25.273438 C 30.43355 25.420537 29.776358 25.816244 28.976562 26.152344 C 27.44014 26.797744 27.376337 27.503906 28.853516 27.503906 C 30.309667 27.503906 29.829738 28.057109 27.957031 28.537109 C 26.839422 28.823709 25.593982 29.515422 24.566406 30.419922 C 23.672849 31.206422 22.941406 32.005666 22.941406 32.197266 C 22.941406 32.405466 23.555285 32.455312 24.458984 32.320312 C 25.293563 32.195614 26.428241 32.265864 26.980469 32.476562 L 27.984375 32.859375 L 26.328125 34.291016 C 24.498684 35.874616 23.260815 37.272184 22.636719 38.458984 C 21.959973 39.746084 22.114649 40.002284 23.314453 39.583984 C 25.062944 38.974384 28.581397 39.381344 30.933594 40.464844 C 32.566836 41.217344 34.075816 42.477053 37.716797 46.126953 C 40.292478 48.708953 43.228445 51.373275 44.242188 52.046875 C 46.610059 53.619775 48.419587 53.882881 50.28125 52.925781 C 51.051575 52.529681 52.149481 51.712628 52.720703 51.111328 C 53.892053 49.878328 53.803095 49.799291 50.974609 49.525391 C 49.503947 49.383191 49.010928 49.138994 48.119141 48.121094 C 47.526097 47.444294 46.418953 46.519606 45.658203 46.066406 C 44.852303 45.586106 43.698841 44.352728 42.896484 43.111328 C 42.139089 41.939528 41.603517 40.848194 41.705078 40.683594 C 42.006613 40.195794 44.423012 39.645875 46.148438 39.671875 C 47.032083 39.685475 48.298168 39.894466 48.962891 40.134766 C 49.847066 40.454666 50.279106 40.89745 50.570312 41.78125 C 50.851946 42.63635 51.255922 43.0659 51.951172 43.25 C 53.241313 43.5918 59.166178 48.398978 59.675781 49.517578 C 59.894103 49.996878 60.072266 50.863359 60.072266 51.443359 C 60.072266 52.023159 60.219047 52.496094 60.398438 52.496094 C 60.57779 52.496094 61.225289 51.815222 61.837891 50.982422 C 63.041428 49.345722 64 46.613659 64 44.818359 C 64 42.735459 62.909004 40.459106 60.552734 37.628906 C 59.267681 36.085506 57.910136 34.226647 57.537109 33.498047 C 57.103444 32.651147 56.859169 31.429222 56.855469 30.107422 C 56.850495 27.160222 55.619129 24.732747 52.644531 21.810547 C 48.711246 17.947047 42.12827 13.9375 39.71875 13.9375 C 39.328125 13.9375 39.007812 14.070575 39.007812 14.234375 C 39.007812 15.543775 39.950532 18.898641 40.486328 19.494141 C 40.851026 19.899541 41.150391 20.407247 41.150391 20.623047 C 41.150391 21.179047 39.305298 20.636781 38.990234 19.988281 C 38.852073 19.703781 38.481751 18.104847 38.167969 16.435547 C 37.083789 10.668547 33.853783 5.9171475 29.603516 3.8359375 C 27.614032 2.8618 24.204687 2.1561717 22.138672 2.2285156 z M 46.941406 24.849609 C 47.1899 24.872309 47.591421 25.193334 48.048828 25.802734 C 48.530581 26.444534 49.347081 27.81275 49.863281 28.84375 L 49.863281 28.845703 C 50.699028 30.514803 50.7336 30.716312 50.171875 30.695312 C 49.07002 30.653212 46.375401 29.807575 44.917969 29.046875 C 43.626018 28.372275 43.575302 28.291753 44.291016 28.064453 C 44.720047 27.926453 45.215939 27.907325 45.392578 28.015625 C 45.874898 28.313625 46.953245 26.460894 46.75 25.683594 C 46.597913 25.102094 46.692912 24.826909 46.941406 24.849609 z M 55.230469 37.572266 C 55.335688 37.558256 55.442732 37.558194 55.550781 37.574219 C 56.412682 37.702119 56.800862 38.572266 55.996094 38.572266 C 55.685175 38.572266 55.431641 38.814675 55.431641 39.109375 L 55.431641 39.117188 C 55.431641 39.807988 54.399228 39.802616 54.130859 39.103516 C 53.879152 38.447266 54.493934 37.670336 55.230469 37.572266 z "
         id="path4253" />
    </g>
  </g>
</svg>
